HIERARCHY
ROOT Hips
{
	OFFSET 0.00000 0.00000 0.00000
	CHANNELS 6 Xposition Yposition Zposition Zrotation Yrotation Xrotation 
	JOINT LHipJoint
	{
		OFFSET 0 0 0
		CHANNELS 3 Zrotation Yrotation Xrotation
		JOINT LeftUpLeg
		{
			OFFSET 1.55020 -1.87941 0.79896
			CHANNELS 3 Zrotation Yrotation Xrotation
			JOINT LeftLeg
			{
				OFFSET 2.65269 -7.28822 0.00000
				CHANNELS 3 Zrotation Yrotation Xrotation
				JOINT LeftFoot
				{
					OFFSET 2.61200 -7.17641 0.00000
					CHANNELS 3 Zrotation Yrotation Xrotation
					JOINT LeftToeBase
					{
						OFFSET 0.09338 -0.25656 1.92461
						CHANNELS 3 Zrotation Yrotation Xrotation
						End Site
						{
							OFFSET 0.00000 -0.00000 0.98480
						}
					}
				}
			}
		}
	}
	JOINT RHipJoint
	{
		OFFSET 0 0 0
		CHANNELS 3 Zrotation Yrotation Xrotation
		JOINT RightUpLeg
		{
			OFFSET -1.56866 -1.87941 0.79895
			CHANNELS 3 Zrotation Yrotation Xrotation
			JOINT RightLeg
			{
				OFFSET -2.60199 -7.14892 0.00000
				CHANNELS 3 Zrotation Yrotation Xrotation
				JOINT RightFoot
				{
					OFFSET -2.62841 -7.22151 0.00000
					CHANNELS 3 Zrotation Yrotation Xrotation
					JOINT RightToeBase
					{
						OFFSET -0.19532 -0.53663 1.93132
						CHANNELS 3 Zrotation Yrotation Xrotation
						End Site
						{
							OFFSET -0.00000 -0.00000 1.00896
						}
					}
				}
			}
		}
	}
	JOINT LowerBack
	{
		OFFSET 0 0 0
		CHANNELS 3 Zrotation Yrotation Xrotation
		JOINT Spine
		{
			OFFSET 0.06381 2.07806 -0.22112
			CHANNELS 3 Zrotation Yrotation Xrotation
			JOINT Spine1
			{
				OFFSET -0.02881 2.08890 0.01825
				CHANNELS 3 Zrotation Yrotation Xrotation
				JOINT Neck
				{
					OFFSET 0 0 0
					CHANNELS 3 Zrotation Yrotation Xrotation
					JOINT Neck1
					{
						OFFSET 0.02418 1.74325 -0.02023
						CHANNELS 3 Zrotation Yrotation Xrotation
						JOINT Head
						{
							OFFSET -0.01704 1.71677 0.04090
							CHANNELS 3 Zrotation Yrotation Xrotation
							End Site
							{
								OFFSET -0.00946 1.78238 0.01684
							}
						}
					}
				}
				JOINT LeftShoulder
				{
					OFFSET 0 0 0
					CHANNELS 3 Zrotation Yrotation Xrotation
					JOINT LeftArm
					{
						OFFSET 3.39783 1.34157 0.16610
						CHANNELS 3 Zrotation Yrotation Xrotation
						JOINT LeftForeArm
						{
							OFFSET 5.15218 -0.00000 0.00000
							CHANNELS 3 Zrotation Yrotation Xrotation
							JOINT LeftHand
							{
								OFFSET 3.49459 -0.00000 0.00000
								CHANNELS 3 Zrotation Yrotation Xrotation
								JOINT LeftFingerBase
								{
									OFFSET 0 0 0
									CHANNELS 3 Zrotation Yrotation Xrotation
									JOINT LeftHandIndex1
									{
										OFFSET 0.51247 -0.00000 0.00000
										CHANNELS 3 Zrotation Yrotation Xrotation
										End Site
										{
											OFFSET 0.41316 -0.00000 0.00000
										}
									}
								}
								JOINT LThumb
								{
									OFFSET 0 0 0
									CHANNELS 3 Zrotation Yrotation Xrotation
									End Site
									{
										OFFSET 0.41947 -0.00000 0.41947
									}
								}
							}
						}
					}
				}
				JOINT RightShoulder
				{
					OFFSET 0 0 0
					CHANNELS 3 Zrotation Yrotation Xrotation
					JOINT RightArm
					{
						OFFSET -3.26224 1.05509 0.01188
						CHANNELS 3 Zrotation Yrotation Xrotation
						JOINT RightForeArm
						{
							OFFSET -5.44344 -0.00000 0.00000
							CHANNELS 3 Zrotation Yrotation Xrotation
							JOINT RightHand
							{
								OFFSET -3.58403 -0.00000 0.00000
								CHANNELS 3 Zrotation Yrotation Xrotation
								JOINT RightFingerBase
								{
									OFFSET 0 0 0
									CHANNELS 3 Zrotation Yrotation Xrotation
									JOINT RightHandIndex1
									{
										OFFSET -0.34249 -0.00000 0.00000
										CHANNELS 3 Zrotation Yrotation Xrotation
										End Site
										{
											OFFSET -0.27612 -0.00000 0.00000
										}
									}
								}
								JOINT RThumb
								{
									OFFSET 0 0 0
									CHANNELS 3 Zrotation Yrotation Xrotation
									End Site
									{
										OFFSET -0.28034 -0.00000 0.28034
									}
								}
							}
						}
					}
				}
			}
		}
	}
}
MOTION
Frames: 14
Frame Time: .0083333
-0.2671 18.0474 -1.8759 165.5560 -99.2669 -160.0800 0.0000 0.0000 0.0000 -21.7813 -4.9067 -15.6525 4.0422 12.2164 36.5018 -1.1862 -18.9973 4.6220 0.1476 -2.4760 -6.8232 0.0000 0.0000 0.0000 20.6070 9.3010 -31.9824 -6.5476 -14.9388 47.1417 -0.1276 7.1555 -7.5729 -2.6666 10.1347 -29.4141 4.8014 1.7874 15.6670 1.1487 3.0671 3.0122 -2.0983 1.3722 -5.3693 0.6103 -2.5554 1.0340 1.3101 -3.6990 10.3340 0.2258 -1.8258 3.1379 0.0000 0.0000 0.0000 -56.3771 24.7176 -27.2576 162.6424 -27.3268 -115.7498 -0.0000 0.0000 -2.5648 3.5693 -1.6855 -0.1051 -7.1250 0.0000 -0.0000 -17.6063 28.1009 7.5713 0.0000 0.0000 0.0000 80.0015 -9.9191 26.5996 -41.1480 48.7355 -19.2977 0.0000 0.0000 20.7522 -49.4420 -29.4210 29.8545 7.1250 -0.0000 -0.0000 -29.0756 -68.8604 17.1579
-0.3746 18.0449 -1.9142 168.7480 -99.8548 -162.8040 0.0000 0.0000 0.0000 -21.6035 -4.3142 -17.1465 4.4838 12.7777 38.5421 -1.3573 -20.1967 5.4500 0.4925 -4.4994 -12.4861 0.0000 0.0000 0.0000 21.1086 8.2709 -31.0150 -6.1539 -14.5759 45.5964 -0.0693 6.2463 -6.0287 -2.5319 9.8956 -28.6393 4.7085 1.6515 15.1118 1.0135 2.8484 2.9152 -2.1281 1.2753 -5.1828 0.5593 -2.5238 0.4572 1.2321 -3.6611 10.6670 0.1990 -1.8052 3.3598 0.0000 -0.0000 0.0000 -57.1648 24.8240 -28.2723 162.2977 -27.7743 -115.5904 -0.0000 0.0000 -2.3119 4.1275 -2.5426 -0.1834 -7.1250 0.0000 -0.0000 -17.0592 27.2890 7.6588 0.0000 -0.0000 0.0000 80.4492 -9.9777 25.9917 -39.2294 47.6066 -17.8680 0.0000 0.0000 21.0025 -49.2992 -29.9205 30.1090 7.1250 -0.0000 -0.0000 -29.0828 -69.3848 17.4976
-0.4873 18.0110 -1.9512 171.1080 -100.9000 -164.7210 0.0000 0.0000 0.0000 -21.2184 -4.0697 -19.0058 5.1835 13.5876 41.6097 -1.4879 -21.0915 5.7068 1.0388 -6.4821 -18.1898 0.0000 0.0000 0.0000 21.7164 6.9914 -30.1141 -5.7667 -14.1983 44.0379 -0.0937 7.7008 -7.2302 -1.3053 7.2375 -20.4208 5.0352 1.3919 14.4150 0.8346 2.5192 2.8399 -2.4167 1.1213 -4.8814 0.3736 -2.5732 -0.0330 1.4372 -3.7469 10.8521 0.2862 -1.8417 3.5265 -0.0000 -0.0000 0.0000 -57.0480 24.7542 -29.2977 161.8753 -28.3166 -115.3918 -0.0000 0.0000 -2.6886 4.4474 -3.1524 -0.2451 -7.1250 0.0000 -0.0000 -16.7340 26.7072 7.7407 -0.0000 -0.0000 0.0000 81.0554 -9.9520 25.3242 -37.1825 46.3092 -16.3719 0.0000 0.0000 20.7405 -49.0977 -30.4831 30.3522 7.1250 -0.0000 -0.0000 -28.9994 -69.9598 17.8085
-0.5591 17.9187 -2.0152 172.7420 -101.6040 -165.7940 0.0000 0.0000 0.0000 -20.7367 -4.2825 -21.6139 6.2414 14.6583 45.9430 -1.4352 -20.7940 5.0779 1.3518 -7.3601 -20.7867 0.0000 0.0000 0.0000 22.1350 7.1503 -29.4607 -5.4617 -13.8856 42.7811 -0.3489 6.3629 -10.7548 -1.6226 8.0312 -22.8088 5.1084 1.3442 14.1738 0.6358 2.4678 2.5484 -2.6564 1.0910 -5.0503 0.1713 -2.7021 -0.3399 1.7232 -3.9409 10.9101 0.4033 -1.9309 3.6191 0.0000 0.0000 0.0000 -56.0644 24.5717 -30.2440 161.3540 -28.9765 -115.1418 -0.0000 0.0000 -3.6147 4.2935 -3.9715 -0.2979 -7.1250 0.0000 -0.0000 -16.7329 25.9195 8.0644 0.0000 0.0000 0.0000 81.7561 -10.0711 24.7029 -35.1905 44.9477 -14.9478 0.0000 0.0000 19.7899 -49.1253 -30.8934 30.6791 7.1250 -0.0000 -0.0000 -29.3071 -70.4301 18.3075
-0.6315 17.8102 -2.0709 173.4490 -102.5600 -166.0170 0.0000 0.0000 0.0000 -20.0576 -5.0550 -24.1959 7.6504 15.8560 51.2935 -1.1961 -19.1829 3.8496 1.0467 -6.5060 -18.2599 0.0000 0.0000 0.0000 22.4717 7.5876 -28.8322 -5.2473 -13.6570 41.8804 -0.5768 5.3445 -13.5272 -1.5370 7.8265 -22.1882 5.4585 1.2562 13.8310 0.5792 2.4055 2.2252 -2.8973 1.0505 -5.1928 -0.2087 -2.8325 -0.6289 1.8851 -4.1227 11.1085 0.5102 -2.0253 3.7606 -0.0000 0.0000 0.0000 -54.7626 24.2563 -30.9120 160.7199 -29.7652 -114.8308 -0.0000 0.0000 -4.3546 4.2544 -4.9333 -0.3665 -7.1250 0.0000 -0.0000 -16.6336 24.9955 8.3885 -0.0000 0.0000 0.0000 82.1726 -10.4251 24.3640 -33.4133 43.6453 -13.7065 0.0000 0.0000 18.1776 -49.1868 -31.0269 30.8315 7.1250 -0.0000 -0.0000 -29.5234 -70.5985 18.5577
-0.6993 17.7218 -2.1182 174.4910 -103.6100 -166.9080 0.0000 0.0000 0.0000 -19.4459 -6.4450 -26.0935 9.4599 17.0948 57.6676 -0.8455 -18.1586 -2.4315 1.6660 -8.1328 -23.1181 0.0000 0.0000 0.0000 22.5024 7.9916 -28.0545 -5.1207 -13.5184 41.3415 -0.7988 4.8074 -15.9516 -1.4226 7.5426 -21.3332 5.6954 1.1770 13.7850 0.6631 2.3608 1.9094 -2.9393 1.0132 -5.5011 -0.7844 -2.9596 -0.7203 1.8386 -4.2725 11.3670 0.5863 -2.1228 3.8862 -0.0000 0.0000 0.0000 -53.5021 23.9162 -31.1761 160.0961 -30.5264 -114.5175 -0.0000 0.0000 -4.9085 4.6182 -5.5283 -0.4459 -7.1250 0.0000 -0.0000 -16.2956 24.4225 8.4308 -0.0000 0.0000 0.0000 82.1379 -10.9453 24.3670 -31.7376 42.3370 -12.5638 0.0000 0.0000 16.1374 -48.9763 -30.9608 30.5964 7.1250 -0.0000 -0.0000 -29.0276 -70.4606 18.1424
-0.7500 17.6345 -2.1643 175.3120 -104.4270 -168.0200 0.0000 0.0000 0.0000 -18.8257 -8.2014 -27.5386 11.5899 18.2119 64.6829 -0.5484 -17.8062 -6.5120 1.3078 -7.2441 -20.4407 0.0000 0.0000 0.0000 22.6080 8.1282 -27.1879 -5.0430 -13.4320 41.0081 -0.9786 4.4547 -17.7349 -1.1382 6.7752 -19.0510 5.7637 1.2278 14.2354 0.8490 2.4918 1.7083 -2.8245 1.0592 -5.9584 -1.3848 -3.1491 -0.6371 1.6958 -4.4935 11.5517 0.6353 -2.2630 3.9528 0.0000 0.0000 0.0000 -52.4681 23.3425 -31.2193 159.5192 -31.2173 -114.2215 -0.0000 0.0000 -5.5554 4.8555 -6.0123 -0.5098 -7.1250 0.0000 -0.0000 -16.0669 23.9549 8.4847 0.0000 0.0000 0.0000 81.8264 -11.3387 24.5704 -30.0510 40.9371 -11.4431 0.0000 0.0000 13.9862 -48.4279 -30.7022 29.9264 7.1250 -0.0000 -0.0000 -27.7221 -70.0021 17.0081
-0.7740 17.5587 -2.2064 174.0770 -104.8190 -167.6600 0.0000 0.0000 0.0000 -17.7702 -9.6640 -28.7978 13.9943 19.1123 72.1870 -0.1730 -16.1900 -9.5011 1.6784 -8.1614 -23.2054 0.0000 0.0000 0.0000 23.4500 7.9680 -25.9619 -4.9306 -13.3052 40.5219 -1.0519 3.6362 -18.5108 -1.0250 6.4403 -18.0674 6.2064 1.3981 15.3424 1.1450 2.8789 1.7006 -2.8739 1.2141 -6.5381 -1.7867 -3.3593 -0.5686 1.4284 -4.7363 11.7018 0.6073 -2.4112 4.0018 -0.0000 -0.0000 0.0000 -51.7988 22.5123 -31.2686 158.9886 -31.8417 -113.9440 -0.0000 0.0000 -6.3214 4.8589 -6.5907 -0.5590 -7.1250 0.0000 -0.0000 -15.9980 23.3970 8.6605 -0.0000 -0.0000 0.0000 81.4547 -11.4267 24.8750 -28.1782 39.2798 -10.2363 0.0000 0.0000 12.5037 -47.8154 -30.2985 29.1044 7.1250 -0.0000 -0.0000 -26.2743 -69.3562 15.7048
-0.7780 17.4915 -2.2317 167.8480 -105.1400 -162.7160 0.0000 0.0000 0.0000 -15.3635 -10.7123 -30.1005 16.5197 19.7071 79.7763 0.0351 -15.5880 -11.3201 2.2497 -9.3679 -26.9532 0.0000 0.0000 0.0000 25.6868 7.7507 -24.5100 -4.7946 -13.1487 39.9276 -1.0264 2.8477 -18.4059 -0.8664 5.9352 -16.5965 7.9914 1.4487 16.7189 1.7566 3.3855 1.8491 -3.3769 1.3867 -7.0238 -1.9946 -3.4552 -0.6301 0.9708 -4.8099 11.8512 0.4865 -2.4752 4.0603 -0.0000 -0.0000 0.0000 -51.6906 21.8206 -31.5857 158.5993 -32.2931 -113.7374 -0.0000 0.0000 -7.2001 4.9429 -6.9482 -0.5994 -7.1250 0.0000 -0.0000 -15.8983 23.0512 8.7343 -0.0000 -0.0000 0.0000 80.9019 -11.0101 25.3248 -25.8912 37.1011 -8.8219 0.0000 0.0000 12.4375 -46.7475 -29.8849 27.9066 7.1250 -0.0000 -0.0000 -24.0347 -68.5525 13.8801
-0.7733 17.4471 -2.2402 156.8260 -105.8160 -154.0250 0.0000 0.0000 0.0000 -11.5928 -11.1087 -30.2325 18.9772 19.9749 87.0083 -0.1180 -16.3930 -10.2798 1.4927 -7.7180 -21.8608 0.0000 0.0000 0.0000 29.4111 7.0169 -21.9101 -4.5840 -12.8994 38.9931 -1.0027 2.8199 -18.1894 -0.6846 5.2899 -14.7374 11.1382 1.2105 19.0215 2.7378 3.9317 2.2855 -4.2811 1.5158 -7.6011 -2.0266 -3.4445 -0.7115 0.4178 -4.7350 11.9362 0.3093 -2.4629 4.0886 0.0000 -0.0000 0.0000 -52.1331 21.4086 -32.1446 158.3255 -32.6072 -113.5904 -0.0000 0.0000 -7.8577 4.9481 -7.2816 -0.6287 -7.1250 0.0000 -0.0000 -15.8585 22.7293 8.8330 0.0000 -0.0000 0.0000 80.2180 -10.1445 25.6294 -23.3985 34.5217 -7.3629 0.0000 0.0000 13.9699 -45.7270 -29.3162 26.6665 7.1250 -0.0000 -0.0000 -21.9864 -67.5817 12.1732
-0.7875 17.4801 -2.2401 155.4540 -105.8630 -152.8970 0.0000 0.0000 0.0000 -10.9873 -12.6841 -32.2710 21.0516 19.9735 93.0761 0.1320 -13.6550 -11.1191 3.0218 -10.7302 -31.3753 0.0000 0.0000 0.0000 29.9112 6.4264 -21.2252 -4.3441 -12.6047 37.9063 -0.9703 3.3518 -17.7935 -0.7078 5.3772 -14.9875 11.5761 1.2597 19.3796 2.9567 4.1361 2.3522 -4.3471 1.5934 -7.6770 -1.8913 -3.4337 -0.5444 -0.0025 -4.6868 11.9084 0.1525 -2.4519 4.0281 0.0000 0.0000 0.0000 -52.7948 21.1653 -32.4560 158.1666 -32.7882 -113.5046 -0.0000 0.0000 -8.0283 5.0253 -7.6939 -0.6745 -7.1250 0.0000 -0.0000 -15.7602 22.3301 8.9242 0.0000 0.0000 0.0000 79.8634 -9.2652 25.0405 -21.1498 32.0028 -6.1291 0.0000 0.0000 17.5039 -42.5456 -27.2104 22.7664 7.1250 -0.0000 -0.0000 -16.4375 -64.1678 7.7341
-0.8069 17.5449 -2.2492 157.1750 -105.7480 -155.0440 0.0000 0.0000 0.0000 -11.5578 -14.5696 -33.5365 22.7675 19.8154 98.1155 0.1253 -12.2599 -10.2123 2.9956 -10.6880 -31.2346 0.0000 0.0000 0.0000 29.5463 5.5587 -20.1791 -4.0542 -12.2322 36.5586 -0.9032 3.6212 -17.1060 -0.8559 5.9000 -16.4946 11.0898 1.3074 19.9337 2.9176 4.1528 2.4982 -4.1490 1.6072 -7.8455 -1.7605 -3.4577 -0.1159 -0.0716 -4.7290 11.8400 0.1155 -2.4721 3.9149 0.0000 0.0000 0.0000 -53.5419 20.9773 -32.2566 158.1744 -32.7794 -113.5088 -0.0000 0.0000 -7.6430 5.2693 -8.1083 -0.7453 -7.1250 0.0000 -0.0000 -15.5456 21.9254 8.9430 0.0000 0.0000 0.0000 80.0037 -8.5894 23.3998 -19.2908 29.7785 -5.1745 0.0000 0.0000 21.9738 -41.4996 -26.8224 21.7622 7.1250 -0.0000 -0.0000 -14.8728 -63.4059 6.7165
-0.8369 17.6352 -2.2607 160.1910 -105.9050 -158.2870 0.0000 0.0000 0.0000 -12.5257 -16.9550 -34.6961 24.0808 19.5960 102.0090 0.1598 -11.8576 -10.4030 2.7959 -10.3572 -30.1413 0.0000 0.0000 0.0000 28.8992 4.6913 -19.2364 -3.7643 -11.8400 35.1683 -0.8334 3.5710 -16.4144 -0.9055 6.0641 -16.9706 10.3850 1.2579 20.1144 2.7439 3.9351 2.6474 -3.9007 1.5285 -7.8453 -1.5430 -3.4928 0.1339 0.0833 -4.8132 12.0405 0.1285 -2.5017 3.9373 0.0000 0.0000 0.0000 -54.3192 20.8588 -31.7572 158.2740 -32.6660 -113.5627 -0.0000 0.0000 -6.8633 5.3498 -8.4967 -0.7927 -7.1250 0.0000 -0.0000 -15.4510 21.5482 9.0226 0.0000 0.0000 0.0000 80.4495 -8.1021 21.3459 -17.9432 28.0843 -4.5225 0.0000 0.0000 25.5732 -42.6884 -27.1730 22.8428 7.1250 -0.0000 -0.0000 -16.6490 -64.1674 7.8362
-0.8738 17.7398 -2.2692 162.3030 -106.2510 -160.3650 0.0000 0.0000 0.0000 -13.1381 -19.5056 -36.1364 25.0755 19.3708 104.9908 0.1895 -12.2336 -10.9600 3.0658 -10.8009 -31.6113 0.0000 0.0000 0.0000 28.5249 4.1939 -18.3299 -3.4411 -11.3770 33.5621 -0.7610 3.2312 -15.7049 -0.8176 5.7697 -16.1176 9.9978 1.1266 19.8900 2.5269 3.6289 2.7579 -3.8352 1.4082 -7.6527 -1.2655 -3.5107 0.0718 0.3978 -4.8951 12.5145 0.1737 -2.5208 4.1218 0.0000 0.0000 0.0000 -55.0203 21.0204 -31.1936 158.3832 -32.5412 -113.6215 -0.0000 0.0000 -6.0580 5.3584 -8.7250 -0.8152 -7.1250 0.0000 -0.0000 -15.4233 21.3270 9.0858 0.0000 0.0000 0.0000 81.0473 -7.8668 19.7589 -17.1212 27.0173 -4.1422 0.0000 0.0000 26.8047 -43.2090 -27.5401 23.4768 7.1250 -0.0000 -0.0000 -17.4810 -64.7511 8.4763
